<?xml version="1.0" standalone="no"?>
<!DOCTYPE svg PUBLIC "-//W3C//DTD SVG 20010904//EN"
 "http://www.w3.org/TR/2001/REC-SVG-20010904/DTD/svg10.dtd">
<svg version="1.0" xmlns="http://www.w3.org/2000/svg"
 width="640.000000pt" height="628.000000pt" viewBox="0 0 640.000000 628.000000"
 preserveAspectRatio="xMidYMid meet">

<g transform="translate(0.000000,628.000000) scale(0.100000,-0.100000)"
fill="#000000" stroke="none">
<path d="M4966 6165 c-49 -58 -93 -105 -98 -105 -5 0 -67 7 -139 16 -72 9
-132 14 -134 12 -3 -2 28 -57 66 -122 48 -80 70 -125 66 -139 -2 -12 -27 -73
-55 -134 -28 -62 -47 -113 -41 -113 5 0 68 14 140 31 l130 31 85 -79 c47 -43
96 -86 109 -95 l22 -18 7 78 c3 42 9 107 12 143 l6 66 112 63 c61 35 117 68
124 73 9 7 -25 26 -120 66 l-133 57 -17 79 c-9 44 -21 106 -28 138 -6 31 -14
57 -18 57 -4 0 -47 -48 -96 -105z m64 -147 c13 -67 25 -98 39 -98 5 0 35 -12
67 -26 l58 -26 -59 -33 c-33 -19 -65 -42 -72 -52 -7 -9 -13 -45 -13 -80 0 -35
-3 -63 -6 -63 -4 0 -32 22 -63 49 l-57 50 -72 -19 c-40 -10 -72 -14 -72 -9 0
5 13 38 29 73 24 54 27 67 17 83 -7 10 -25 40 -41 66 l-28 49 79 -7 79 -7 45
56 c25 30 48 55 51 56 4 0 12 -28 19 -62z"/>
<path d="M1133 6104 c-38 -55 -99 -141 -134 -192 l-64 -94 -234 6 c-189 5
-232 4 -224 -6 6 -7 69 -93 141 -190 l131 -176 -74 -216 c-41 -119 -71 -216
-66 -216 5 0 101 32 215 70 113 39 209 70 214 70 5 0 89 -60 188 -134 l179
-135 3 232 3 232 184 130 c101 71 181 133 177 136 -4 4 -98 35 -209 70 -111
34 -206 65 -212 68 -6 4 -41 105 -79 225 l-69 218 -70 -98z m87 -251 c25 -80
50 -151 55 -158 6 -7 73 -31 150 -55 77 -23 144 -45 148 -50 5 -4 -50 -49
-122 -100 l-131 -93 -2 -164 -3 -164 -129 97 -130 97 -150 -52 c-83 -28 -154
-51 -158 -51 -4 0 17 69 47 154 l54 154 -100 133 c-54 73 -99 134 -99 136 0 3
74 1 164 -3 l163 -7 94 136 c52 75 96 136 99 136 3 1 25 -65 50 -146z"/>
<path d="M4270 4713 c-78 -23 -108 -26 -350 -33 -292 -8 -410 -23 -616 -75
-880 -225 -1489 -937 -1620 -1895 -23 -170 -23 -483 0 -645 113 -790 561
-1374 1222 -1594 420 -140 893 -133 1439 21 133 37 481 161 498 177 4 4 -56
13 -134 20 -216 19 -333 42 -519 103 -578 189 -1005 672 -1164 1317 -49 197
-66 342 -66 561 0 815 387 1518 1010 1834 178 90 174 90 329 71 74 -8 136 -13
138 -11 3 2 7 23 10 45 5 37 3 41 -16 41 -17 0 -21 6 -21 29 0 70 -12 72 -140
34z m-330 -117 c0 -3 -33 -23 -74 -45 -446 -247 -786 -721 -926 -1293 -53
-217 -64 -320 -65 -588 0 -190 4 -270 18 -355 73 -439 228 -788 479 -1080 256
-296 576 -485 993 -585 l110 -27 -85 -26 c-298 -92 -576 -136 -847 -137 -712
-1 -1279 346 -1578 965 -373 772 -246 1779 307 2440 361 431 880 683 1493 724
166 11 175 12 175 7z"/>
<path d="M5316 4512 c-3 -103 -9 -228 -12 -279 l-6 -92 -234 -148 c-177 -112
-229 -150 -216 -155 9 -5 127 -48 262 -97 l245 -88 67 -259 c37 -142 68 -265
70 -272 2 -8 79 83 171 202 92 118 172 218 177 221 5 3 128 -2 274 -11 147
-10 269 -15 272 -11 3 3 -63 107 -147 231 l-153 226 102 256 c57 141 101 258
100 260 -2 1 -123 -32 -269 -73 l-265 -76 -206 170 c-113 94 -210 173 -216
176 -6 4 -12 -63 -16 -181z m259 -132 c77 -64 145 -119 152 -123 7 -4 100 18
208 49 108 31 198 54 201 52 2 -2 -31 -91 -73 -196 l-77 -192 117 -173 c64
-94 111 -174 105 -176 -6 -2 -101 2 -210 9 -110 6 -201 10 -202 8 -2 -1 -61
-77 -131 -167 l-129 -164 -52 203 c-29 112 -57 206 -61 210 -4 4 -93 37 -198
75 -104 37 -191 68 -193 70 -1 1 78 53 176 115 l179 113 7 135 c3 74 6 171 6
215 0 74 1 79 18 66 9 -8 80 -66 157 -129z"/>
<path d="M286 3323 c-10 -71 -19 -135 -22 -144 -2 -9 -61 -42 -129 -74 -69
-32 -125 -61 -125 -64 0 -4 54 -34 121 -66 66 -33 124 -67 128 -75 5 -8 16
-75 26 -148 l19 -133 105 105 106 104 135 -23 c74 -12 136 -22 138 -20 2 2
-26 59 -62 127 l-66 124 66 127 c36 70 62 127 57 127 -4 0 -68 -10 -142 -22
l-135 -22 -97 102 c-54 56 -99 102 -102 102 -2 0 -12 -57 -21 -127z m142 -118
l50 -54 76 13 c42 7 76 10 76 7 0 -3 -16 -35 -35 -70 l-34 -63 35 -71 36 -70
-30 6 c-16 3 -51 9 -78 12 -49 6 -49 6 -99 -44 -27 -28 -52 -51 -56 -51 -4 0
-10 28 -14 63 -4 34 -11 69 -15 77 -5 9 -36 29 -69 45 -34 16 -61 31 -61 35 0
3 31 20 69 37 l69 30 7 77 c4 42 11 76 15 76 4 0 30 -25 58 -55z"/>
<path d="M5655 1764 c-77 -90 -147 -173 -156 -183 -16 -19 -20 -19 -245 5
-126 13 -237 23 -246 22 -14 -2 9 -46 107 -207 69 -112 125 -208 125 -212 0
-5 -43 -105 -96 -222 -53 -116 -98 -217 -100 -223 -3 -6 104 15 238 47 l243
58 30 -28 c17 -15 82 -74 145 -131 63 -57 132 -120 152 -139 21 -19 39 -33 42
-30 2 2 11 105 20 229 10 124 21 234 26 246 5 12 87 66 214 139 113 65 206
120 206 124 0 3 -98 46 -218 95 -119 49 -221 92 -225 96 -6 5 -107 455 -107
476 0 16 -33 -18 -155 -162z m148 -228 l32 -149 164 -69 c90 -37 165 -69 167
-71 1 -1 -67 -42 -151 -90 -85 -49 -157 -91 -159 -95 -2 -4 -9 -73 -15 -152
-7 -80 -14 -160 -17 -178 l-5 -32 -131 120 c-71 66 -138 120 -147 120 -9 0
-88 -17 -176 -38 -88 -22 -161 -36 -163 -32 -1 4 29 76 68 160 38 84 70 158
70 163 0 6 -41 77 -91 159 -50 82 -89 151 -88 152 2 2 81 -5 174 -15 94 -11
175 -17 182 -15 6 3 62 64 125 137 111 129 113 131 121 103 4 -16 22 -96 40
-178z"/>
<path d="M916 809 c-6 -27 -36 -235 -36 -249 0 -6 -60 -40 -132 -76 l-133 -67
130 -64 c71 -35 130 -65 131 -66 2 -1 10 -58 19 -127 9 -69 19 -131 21 -139 3
-10 39 20 107 87 l102 102 140 -25 c76 -14 140 -25 142 -25 1 0 -26 55 -62
123 -36 68 -65 129 -65 135 0 7 29 66 65 133 36 66 65 122 65 123 0 2 -64 -8
-142 -21 l-142 -24 -102 102 c-95 95 -103 101 -108 78z m224 -268 c25 5 60 11
78 14 l34 6 -38 -70 -39 -70 33 -67 c18 -36 32 -68 30 -70 -2 -1 -36 2 -76 8
l-73 12 -53 -53 -54 -53 -6 28 c-3 16 -8 50 -11 75 -7 45 -8 46 -78 81 l-72
35 71 36 c77 39 71 29 89 146 l7 43 57 -54 c56 -55 56 -55 101 -47z"/>
</g>
</svg>
