<?xml version="1.0" standalone="no"?>
<!DOCTYPE svg PUBLIC "-//W3C//DTD SVG 20010904//EN"
 "http://www.w3.org/TR/2001/REC-SVG-20010904/DTD/svg10.dtd">
<svg version="1.0" xmlns="http://www.w3.org/2000/svg"
 width="500.000000pt" height="500.000000pt" viewBox="0 0 500.000000 500.000000"
 preserveAspectRatio="xMidYMid meet">

<g transform="translate(0.000000,500.000000) scale(0.100000,-0.100000)"
fill="#000000" stroke="none">
<path d="M2635 3536 c-116 -17 -170 -32 -222 -62 -51 -29 -65 -53 -73 -118 -5
-47 -6 -49 -47 -61 -117 -35 -263 -130 -288 -187 -21 -50 6 -231 77 -516 22
-90 38 -165 35 -168 -8 -8 -357 -56 -371 -51 -9 4 -15 36 -20 100 -9 119 -38
243 -62 268 -18 18 -25 18 -119 5 -55 -8 -158 -19 -230 -26 -71 -6 -191 -20
-265 -30 -332 -48 -530 -79 -539 -85 -26 -16 -45 -72 -45 -135 0 -64 37 -340
54 -410 5 -19 25 -109 44 -200 19 -91 39 -177 45 -193 17 -44 47 -50 251 -44
298 10 771 91 894 154 l29 15 -6 121 c-4 67 -15 185 -26 262 -11 77 -19 141
-18 142 8 6 397 56 402 51 4 -4 33 -112 65 -240 90 -362 150 -528 203 -563 73
-48 285 -88 467 -89 194 0 270 18 505 119 250 107 371 192 416 290 24 51 23
83 -2 230 -47 279 -85 553 -76 561 2 2 60 16 127 29 132 27 140 26 140 -23 0
-27 66 -265 80 -293 42 -77 77 -71 418 68 75 31 74 21 32 240 -46 239 -89 411
-116 465 -31 61 -33 61 -261 1 -98 -25 -194 -47 -213 -47 -44 -1 -44 -3 4
-191 20 -76 33 -142 28 -146 -8 -8 -183 -41 -226 -43 l-29 -1 -18 100 c-9 55
-33 172 -53 260 -20 88 -38 180 -41 205 -5 56 -38 89 -119 119 -71 26 -187 45
-242 38 -42 -4 -42 -4 -62 43 l-20 47 -208 1 c-122 0 -247 -5 -299 -12z m435
-42 c30 -5 38 -12 53 -48 22 -53 22 -99 -1 -119 -34 -31 -111 -57 -208 -72
-113 -17 -399 -31 -437 -21 -35 8 -57 32 -57 62 0 13 -4 24 -10 24 -5 0 -10 9
-10 20 0 17 4 19 28 13 47 -14 329 -10 344 5 24 24 -6 31 -107 24 -114 -8
-230 -1 -247 16 -16 16 41 47 121 66 113 27 437 45 531 30z m305 -98 c109 -24
162 -56 149 -90 -16 -41 -228 -148 -369 -186 -241 -65 -719 -99 -989 -70 -98
10 -129 27 -110 58 17 26 109 78 208 117 l90 35 28 -34 c44 -53 77 -60 278
-53 199 7 271 17 383 54 101 33 157 82 157 135 0 19 3 38 7 41 11 11 104 7
168 -7z m207 -339 c48 -219 71 -356 108 -642 16 -126 36 -266 44 -310 30 -157
15 -219 -70 -294 -83 -74 -386 -210 -571 -257 -156 -39 -319 -32 -563 27 -46
11 -92 25 -101 30 -32 17 -115 259 -180 527 -22 90 -65 256 -94 368 -47 180
-84 351 -99 468 -5 36 -4 38 17 31 41 -14 532 -17 688 -6 321 25 574 95 736
205 21 14 40 26 43 26 3 0 22 -78 42 -173z m777 81 c23 -70 70 -293 63 -300
-4 -4 -24 -14 -44 -22 l-36 -16 -33 98 c-18 53 -45 128 -61 166 -15 38 -26 71
-23 74 4 4 96 28 117 31 3 1 11 -14 17 -31z m-123 -167 c30 -78 54 -153 54
-165 0 -19 -11 -27 -67 -49 -38 -14 -95 -37 -128 -51 -33 -14 -63 -22 -66 -18
-4 4 -17 56 -29 115 -12 60 -30 141 -40 180 -11 40 -16 75 -12 79 13 13 217
65 225 57 5 -3 33 -70 63 -148z m233 -311 c12 -58 24 -113 27 -122 6 -19 -51
-55 -61 -39 -7 13 -75 236 -75 249 0 16 74 42 81 28 4 -6 16 -58 28 -116z
m-135 28 c40 -139 57 -210 53 -215 -11 -11 -230 -83 -252 -83 -19 0 -27 10
-44 55 -24 63 -56 184 -50 189 2 1 56 22 118 45 63 23 122 46 130 51 26 15 29
12 45 -42z m-2680 -76 c20 -107 41 -421 29 -433 -26 -26 -583 -68 -583 -44 0
4 -14 116 -31 247 -17 132 -29 242 -26 245 3 2 72 13 154 23 81 11 195 26 253
33 58 8 124 15 146 16 l42 1 16 -88z m-640 -235 c16 -131 27 -239 25 -241 -2
-2 -110 -6 -240 -10 l-235 -7 -13 78 c-23 143 -39 300 -34 327 7 35 26 42 148
56 55 6 138 17 185 24 47 8 96 14 110 13 l25 -2 29 -238z m689 -271 c8 -21 31
-285 25 -291 -16 -16 -502 -109 -541 -103 -18 3 -23 14 -34 78 -12 71 -43 270
-43 277 0 2 29 3 64 3 101 0 354 20 431 34 95 18 92 18 98 2z m-622 -221 c16
-99 25 -183 21 -187 -11 -10 -216 -28 -328 -28 -71 0 -105 4 -112 13 -11 13
-63 237 -77 329 l-7 47 33 4 c19 2 126 4 238 3 l205 -1 27 -180z"/>
<path d="M2878 3413 c-10 -2 -18 -13 -18 -24 0 -11 7 -19 18 -19 27 0 46 16
39 34 -7 16 -9 17 -39 9z"/>
<path d="M3075 2871 c-151 -37 -211 -128 -222 -341 -9 -174 22 -389 91 -625
48 -168 81 -249 100 -253 31 -6 283 86 422 155 41 20 86 50 101 65 l28 29 -1
147 c-2 501 -247 889 -519 823z m172 -82 c164 -80 267 -341 288 -735 l7 -131
-28 -20 c-61 -43 -194 -104 -199 -91 -2 7 -9 33 -15 58 -6 25 -29 99 -52 166
l-41 120 51 48 c28 26 54 56 57 67 15 45 -41 79 -128 79 -34 0 -40 4 -54 38
-19 45 -39 129 -58 237 -26 156 -27 177 -13 187 21 15 137 0 185 -23z m-233
-31 c3 -13 12 -72 21 -133 27 -176 63 -283 104 -305 11 -5 41 -10 68 -10 82 0
86 -12 25 -71 -29 -29 -55 -61 -58 -73 -3 -12 10 -64 29 -117 49 -133 79 -251
69 -261 -5 -5 -52 -24 -104 -43 l-96 -34 -21 52 c-76 191 -141 517 -141 710 0
130 16 205 57 269 27 43 41 48 47 16z"/>
<path d="M2357 2752 c-48 -50 -36 -126 23 -157 41 -21 64 -19 99 11 49 41 39
91 -29 151 -34 30 -61 29 -93 -5z m81 -64 c19 -16 15 -48 -7 -48 -21 0 -51 35
-51 58 0 14 34 8 58 -10z"/>
<path d="M2511 2325 c-55 -47 -77 -136 -48 -195 17 -35 75 -62 117 -54 18 4
49 23 70 43 68 64 63 149 -9 197 -58 38 -92 40 -130 9z m107 -75 c54 -23 -3
-126 -66 -118 -45 5 -55 103 -15 143 14 14 17 14 37 0 11 -8 31 -20 44 -25z"/>
<path d="M2567 1959 c-69 -54 -51 -202 28 -235 47 -19 114 -18 155 5 43 22 80
74 80 111 0 38 -38 91 -85 117 -54 31 -141 32 -178 2z m127 -43 c43 -18 80
-69 72 -100 -12 -47 -127 -65 -166 -26 -43 43 -15 140 40 140 11 0 36 -6 54
-14z"/>
</g>
</svg>
